<?xml version="1.0" encoding="utf-8"?>
<!-- Generator: Adobe Illustrator 16.0.0, SVG Export Plug-In . SVG Version: 6.00 Build 0)  -->
<!DOCTYPE svg PUBLIC "-//W3C//DTD SVG 1.1//EN" "http://www.w3.org/Graphics/SVG/1.1/DTD/svg11.dtd">
<svg version="1.1" id="Capa_1" xmlns="http://www.w3.org/2000/svg" xmlns:xlink="http://www.w3.org/1999/xlink" x="0px" y="0px"
	 width="352.968px" height="352.969px" viewBox="0 0 352.968 352.969" enable-background="new 0 0 352.968 352.969"
	 xml:space="preserve">
<g>
	<g>
		<path d="M136.869,143.833c-0.777,0.59-1.157,1.594-0.948,2.545c0.211,0.953,0.955,1.696,1.909,1.906
			c0.784,0.172,1.51,0.16,3.744-1.558c0.994-0.762,2.459-2.048,3.813-3.84l0.592-0.787c5.072-6.752,16.948-22.563,34.099-21.705
			c14.144,1.034,24.173,11.726,28.994,30.922c0.164,0.652,0.266,1.052,0.376,1.36c0.736,3.139,1.974,7.051,3.753,8.338
			c0.444,0.32,0.953,0.473,1.46,0.473c0.777,0,1.54-0.361,2.027-1.038c0.781-1.08,0.572-2.575-0.449-3.402
			c-0.494-0.638-1.422-3.311-1.972-5.7c-0.033-0.142-0.078-0.28-0.136-0.413c-0.046-0.163-0.135-0.519-0.215-0.837
			c-0.766-3.043-2.795-11.126-7.719-18.727c-6.364-9.816-15.036-15.186-25.787-15.962c-0.018-0.001-0.034-0.001-0.054-0.003
			c-19.813-1.014-32.817,16.297-38.369,23.689l-0.585,0.776c-1.52,2.011-3.314,3.263-3.935,3.625
			C137.259,143.578,137.059,143.69,136.869,143.833z"/>
		<path d="M200.375,157.871c1.884-4.713,1.929-9.582,0.124-13.358c-1.61-3.368-4.613-5.81-8.679-7.056
			c-5.972-1.83-13.212,1.49-19.844,9.096c-0.085,0.093-9.526,10.033-19.439,16.108c-0.073,0.044-7.333,4.402-14.91,6.468
			c-1.331,0.363-2.116,1.736-1.751,3.068c0.36,1.332,1.734,2.119,3.065,1.754c8.243-2.247,15.858-6.818,16.191-7.02
			c10.754-6.591,20.51-16.98,20.592-17.076c4.026-4.617,9.984-9.044,14.631-7.619c2.734,0.838,4.634,2.33,5.639,4.435
			c1.205,2.518,1.111,5.921-0.256,9.341c-2.545,6.364-10.467,14.049-22.31,21.639c-5.939,3.809-20.891,13.153-31.449,17.672
			c-1.271,0.543-1.857,2.012-1.316,3.28c0.405,0.948,1.328,1.516,2.295,1.516c0.328,0,0.661-0.063,0.981-0.2
			c10.905-4.666,26.138-14.184,32.184-18.057C185.114,176.099,196.623,167.256,200.375,157.871z"/>
		<path d="M160.156,139.209c-1.135,1.25-2.15,2.591-3.248,3.873c-1.434,1.679-3.002,3.248-4.641,4.727
			c-1.682,1.522-3.045,2.611-5.031,3.752c-2.105,1.21-4.252,2.434-6.435,3.497c-0.751,0.367-1.394,0.604-2.238,0.859
			c-1.304,0.391-2.113,1.737-1.745,3.075c0.353,1.29,1.767,2.138,3.07,1.747c2.554-0.769,4.87-2.083,7.175-3.395
			c1.946-1.108,3.879-2.106,5.67-3.469c3.488-2.655,6.491-5.755,9.251-9.146c1.116-1.373,2.312-2.682,3.559-3.937
			c0.683-0.687,1.389-1.348,2.107-1.994c0.375-0.336,0.757-0.664,1.14-0.988c0.196-0.164,0.393-0.326,0.592-0.487
			c0.053-0.043,0.441-0.349,0.54-0.429c1.74-1.333,3.591-2.518,5.541-3.52c1.84-0.947,3.687-1.611,5.93-2.077
			c0.743-0.155,0.904-0.172,1.462-0.229c1.354-0.141,2.498-1.031,2.498-2.499c0-1.258-1.143-2.641-2.498-2.5
			C173.826,126.999,166.105,132.649,160.156,139.209z"/>
		<path d="M140.721,187.072c5.425-1.863,33.282-12.275,48.877-34.161c0.802-1.124,0.542-2.685-0.582-3.485
			c-1.122-0.802-2.682-0.542-3.479,0.582c-14.714,20.643-41.266,30.558-46.438,32.336c-0.112,0.036-0.177,0.061-0.202,0.07
			c-1.291,0.49-1.938,1.933-1.452,3.225c0.378,0.999,1.328,1.615,2.337,1.615c0.283,0,0.572-0.051,0.852-0.151L140.721,187.072z"/>
		<path d="M208.676,201.952c-3.461-1.154-7.699-4.173-11.793-7.093c-5.934-4.229-11.054-7.882-15.228-7.161
			c-3.137,0.542-8.615,4.046-17.264,9.753c-6.236,4.115-13.303,8.777-16.377,9.605c-1.33,0.358-2.121,1.73-1.762,3.063
			c0.299,1.116,1.309,1.852,2.41,1.852c0.214,0,0.434-0.027,0.65-0.087c3.852-1.038,10.64-5.517,17.828-10.257
			c5.805-3.831,13.031-8.599,15.364-9.001c2.121-0.363,7.31,3.333,11.48,6.308c4.396,3.132,8.941,6.373,13.109,7.764
			c1.31,0.438,2.723-0.271,3.158-1.579C210.69,203.805,209.982,202.389,208.676,201.952z"/>
		<path d="M202.422,214.197c-2.012-0.729-5.284-2.752-8.45-4.708c-6.685-4.134-10.933-6.644-13.982-6.116
			c-3.089,0.534-9.572,4.946-20.46,12.9c-1.333,0.972-2.483,1.814-3.28,2.38c-1.127,0.795-1.396,2.357-0.6,3.481
			c0.486,0.691,1.258,1.061,2.042,1.061c0.497,0,1-0.149,1.439-0.46c0.83-0.587,1.994-1.438,3.343-2.425
			c4.333-3.165,15.842-11.575,18.339-12.008c1.558-0.105,7.178,3.364,10.534,5.438c3.536,2.188,6.876,4.254,9.377,5.157
			c1.298,0.47,2.729-0.202,3.198-1.502C204.39,216.1,203.72,214.667,202.422,214.197z"/>
		<path d="M193.987,226.625c-1.401-0.917-2.692-1.838-3.939-2.729c-4.097-2.927-7.635-5.456-11.516-4.781
			c-4.372,0.755-11.328,7.759-12.679,9.154c-0.958,0.991-0.933,2.573,0.058,3.533c0.484,0.471,1.111,0.705,1.737,0.705
			c0.653,0,1.304-0.255,1.795-0.762c3.342-3.458,8.094-7.387,9.939-7.706c1.822-0.313,4.578,1.65,7.768,3.927
			c1.227,0.878,2.617,1.871,4.109,2.846c1.155,0.755,2.706,0.429,3.457-0.727C195.467,228.929,195.142,227.38,193.987,226.625z"/>
		<path d="M215.963,175.027c-2.082-0.88-4.257-1.805-6.009-3.265c-1.932-1.605-2.829-3.715-3.229-6.15
			c-0.522-3.175-5.334-1.824-4.814,1.329c1.066,6.485,5.835,9.994,11.532,12.404c1.254,0.53,2.664,0.392,3.415-0.896
			C217.481,177.388,217.219,175.558,215.963,175.027z"/>
		<path d="M211.117,188.07c-1.877-0.578-3.298-1.313-5.284-2.485c-3.636-2.149-6.95-5.267-8.561-9.243
			c-0.512-1.261-1.644-2.14-3.073-1.746c-1.197,0.33-2.256,1.81-1.744,3.075c2.977,7.345,9.809,12.896,17.333,15.218
			C212.875,193.841,214.183,189.017,211.117,188.07z"/>
		<polygon points="115.395,115.36 139.661,115.36 139.661,111.484 111.522,111.484 111.522,139.649 115.395,139.649 		"/>
		<polygon points="213.344,111.484 213.344,115.36 237.613,115.36 237.613,139.649 241.484,139.649 241.484,111.484 		"/>
		<polygon points="115.356,213.319 111.484,213.319 111.484,241.484 139.621,241.484 139.621,237.608 115.356,237.608 		"/>
		<polygon points="237.572,237.608 213.304,237.608 213.304,241.484 241.444,241.484 241.444,213.319 237.572,213.319 		"/>
	</g>
</g>
</svg>
