<?xml version="1.0" encoding="utf-8"?>
<!-- Generator: Adobe Illustrator 16.0.0, SVG Export Plug-In . SVG Version: 6.00 Build 0)  -->
<!DOCTYPE svg PUBLIC "-//W3C//DTD SVG 1.1//EN" "http://www.w3.org/Graphics/SVG/1.1/DTD/svg11.dtd">
<svg version="1.1" id="Capa_1" xmlns="http://www.w3.org/2000/svg" xmlns:xlink="http://www.w3.org/1999/xlink" x="0px" y="0px"
	 width="1024px" height="768px" viewBox="0 0 1024 768" enable-background="new 0 0 1024 768" xml:space="preserve">
<g>
	<path fill="#010002" d="M755.288,720.349c-9.019-17.008-7.101-12.469-8.727-20.87c-1.479-7.582-0.734-16.35-1.145-25.424
		c-0.614-13.721-1.897-28.14-1.897-40.23c0-10.624-4.436-14.003-6.832-20.87c-3.485-9.998-6.28-19.141-11.005-23.91
		c-5.729-5.787-12.008-2.112-12.008-2.112c-4.138-10.71-5.224-13.437-9.579-18.726c-4.186-5.09-10.504-4.402-10.504-4.402
		s-3.095-15.373-10.166-23.131c-3.771-4.141-11.548-4.094-14.476-2.677c-2.115,1.029-4.951,4.329-7.921,6.498
		c-5.707,4.17-12.592,11.973-12.604,11.987l0,0c0,0-1.169-3.562-4.424-9.925c-0.886-1.729-2.04-3.645-3.303-5.657
		c6.604-6.946,10.683-16.316,10.683-26.657c0-21.398-17.346-38.742-38.735-38.742c-21.399,0-38.736,17.344-38.736,38.742
		c0,20.891,16.547,37.875,37.248,38.663c1.836,5.444,4.067,11.385,6.018,16.396c3.636,9.34,6.696,16.963,8.438,26.778
		c1.275,7.197,0.522,15.428,0.212,22.305c-0.262,5.837-0.692,11.462-1.368,16.083c-0.925,6.31-2.926,10.742-3.993,13.575
		c-0.8,2.116-0.664,3.898-0.664,3.898s-1.47-0.023-3.217,0.549c-1.744,0.575-2.848,2.042-2.848,2.042l-2.901-1.95
		c0,0,0.546-1.054,0-2.939c-0.593-2.057-1.629-4.946-3.093-8.814c-0.596-1.579-1.166-4.722-1.632-6.21
		c-1.23-3.934-2.854-5.392-2.854-5.392s1.682-5.4-0.573-11.249c-2.363-6.127-7.558-14.366-13.333-19.832
		c-4.757-4.503-8.635-5.681-12.749-5.058c-5.12,0.775-7.076,6.707-6.123,12.955c0.575,3.777,2.258,8.856,2.656,11.468
		c0.947,6.233-2.491,13.604-2.364,17.901c0.165,5.569,3.066,8.656,5.726,20.419c0.947,4.202,3.691,8.801,4.948,13.613
		c1.862,7.112,3.005,13.897,3.831,15.611c4.386,9.078,21.788,20.479,37.951,35.293c9.104,8.346,19.879,8.387,27.321,15.938
		c4.56,4.622,7.065,12.354,11.764,19.354c19.478,29.01,76.546,0.667,91.543-20.838C757.419,729.701,756.69,722.995,755.288,720.349z
		 M578.771,514.242c0-18.71,15.159-33.879,33.872-33.879c18.714,0,33.873,15.169,33.873,33.879c0,8.603-3.231,16.432-8.517,22.408
		c-1.508-2.361-3.042-4.796-4.436-7.233c3.102-4.265,4.949-9.497,4.949-15.175c0-14.292-11.583-25.872-25.873-25.875
		c-14.289,0-25.869,11.583-25.869,25.875c0,12.389,8.715,22.732,20.348,25.262c0.67,2.376,1.367,4.79,2.09,7.269
		c0.112,0.384,0.242,0.794,0.363,1.189C592.301,546.409,578.771,531.911,578.771,514.242z M630.722,524.017
		c-5.822-11.819-10.049-23.712-21-20.448c-3.273,0.977-6.593,4.261-7.115,9.659c-0.514,5.25,0.817,12.288,2.88,20.256
		c-7.817-2.909-13.395-10.414-13.395-19.241c0-11.353,9.201-20.555,20.551-20.555c11.351,0,20.552,9.202,20.549,20.555
		C633.191,517.78,632.298,521.109,630.722,524.017z"/>
</g>
</svg>
