<?xml version="1.0" encoding="utf-8"?>
<!-- Generator: Adobe Illustrator 16.0.0, SVG Export Plug-In . SVG Version: 6.00 Build 0)  -->
<!DOCTYPE svg PUBLIC "-//W3C//DTD SVG 1.1//EN" "http://www.w3.org/Graphics/SVG/1.1/DTD/svg11.dtd">
<svg version="1.1" id="Capa_1" xmlns="http://www.w3.org/2000/svg" xmlns:xlink="http://www.w3.org/1999/xlink" x="0px" y="0px"
	 width="311.32px" height="311.321px" viewBox="0 0 311.32 311.321" enable-background="new 0 0 311.32 311.321"
	 xml:space="preserve">
<g>
	<path d="M20.775,89.275c2.087,0.458,4.018,0.424,9.965-4.143c2.635-2.026,6.537-5.443,10.141-10.205l1.577-2.096
		c13.49-17.944,45.077-59.955,90.701-57.677c37.626,2.745,64.299,31.157,77.121,82.173c0.438,1.732,0.705,2.8,1,3.614
		c0.021,0.107,0.059,0.222,0.082,0.335c3.634,6.386,6.498,13.258,8.48,20.501c0.458,0.494,0.931,0.963,1.423,1.321
		c1.171,0.849,2.532,1.257,3.885,1.257c2.053,0,4.093-0.956,5.386-2.758c2.074-2.866,1.523-6.836-1.196-9.04
		c-1.314-1.697-3.778-8.796-5.243-15.146c-0.089-0.375-0.205-0.739-0.362-1.097c-0.116-0.438-0.359-1.384-0.575-2.231
		c-2.032-8.084-7.433-29.562-20.533-49.765c-16.919-26.082-39.99-40.356-68.59-42.416c-0.045-0.007-0.086-0.007-0.137-0.014
		C81.199-0.797,46.605,45.211,31.838,64.853l-1.551,2.06c-4.045,5.345-8.826,8.673-10.472,9.637
		c-0.554,0.221-1.092,0.519-1.591,0.898c-2.067,1.565-3.077,4.236-2.522,6.769C16.264,86.743,18.244,88.72,20.775,89.275z"/>
	<path d="M179.06,68.37c-4.019-3.435-8.937-6.11-14.671-7.87c-2.096-0.638-4.25-1.026-6.454-1.199
		C165.414,61.425,172.51,64.491,179.06,68.37z"/>
	<path d="M23.735,157.485c7.255-1.977,14.308-4.625,20.554-7.311c-0.086-1.602-0.134-3.21-0.134-4.832
		c0-3.354,0.202-6.667,0.565-9.924c-6.972,3.273-15.646,6.844-24.479,9.253c-3.539,0.958-5.626,4.613-4.661,8.152
		C16.54,156.364,20.193,158.456,23.735,157.485z"/>
	<path d="M62.205,199.155c-10.55,5.779-21.106,11.156-30.396,15.123c-3.374,1.441-4.941,5.346-3.497,8.719
		c1.078,2.525,3.531,4.027,6.108,4.027c0.872,0,1.759-0.17,2.61-0.523c10.458-4.475,22.412-10.635,34.185-17.154
		C67.97,206.182,64.95,202.778,62.205,199.155z"/>
	<path d="M80.161,65.153c-3.011,3.326-5.718,6.894-8.634,10.295c-3.816,4.46-7.987,8.63-12.337,12.559
		c-4.483,4.045-8.107,6.938-13.388,9.974c-5.603,3.21-11.317,6.469-17.118,9.292c-1.999,0.972-3.72,1.608-5.961,2.279
		c-3.463,1.041-5.616,4.618-4.633,8.17c0.94,3.431,4.701,5.681,8.168,4.641c6.793-2.046,12.949-5.537,19.079-9.021
		c2.073-1.184,4.134-2.318,6.174-3.489c9.804-22.593,28.671-40.37,51.988-48.725c0.4-0.335,0.805-0.662,1.205-1
		c0.138-0.107,1.17-0.924,1.432-1.134c4.626-3.541,9.558-6.694,14.743-9.356c4.896-2.521,9.811-4.28,15.769-5.523
		c1.978-0.409,2.413-0.452,3.888-0.603c3.598-0.375,6.644-2.745,6.644-6.644c0-3.34-3.029-7.016-6.644-6.641
		C116.523,32.714,95.993,47.731,80.161,65.153z"/>
	<path d="M28.464,192.348c4.018-1.375,12.658-4.518,23.928-9.582c-1.853-3.996-3.416-8.158-4.665-12.449
		c-11.108,5.018-19.653,8.125-23.575,9.474c-0.298,0.103-0.482,0.164-0.541,0.185c-3.429,1.307-5.161,5.141-3.86,8.568
		c1.003,2.656,3.532,4.285,6.211,4.285c0.754,0,1.523-0.123,2.267-0.387L28.464,192.348z"/>
	<path d="M172.703,225.68c6.612,4.695,13.313,9.35,19.862,13.063l-15.372-15.404C175.72,224.167,174.217,224.942,172.703,225.68z"/>
	<path d="M101.897,228.956c-4.859-1.85-9.521-4.107-13.935-6.736c-15.668,10.313-32.479,21.191-40.083,23.238
		c-3.546,0.953-5.645,4.604-4.692,8.141c0.801,2.975,3.479,4.922,6.41,4.922c0.57,0,1.157-0.072,1.73-0.229
		c10.246-2.766,28.306-14.672,47.424-27.262C99.785,230.348,100.835,229.651,101.897,228.956z"/>
	<path d="M192.594,264.44c-5.35-1.939-14.059-7.314-22.478-12.518c-17.777-10.986-29.082-17.652-37.191-16.256
		c-8.218,1.42-25.469,13.146-54.419,34.285c-3.546,2.588-6.604,4.818-8.729,6.328c-2.991,2.115-3.707,6.264-1.595,9.254
		c1.297,1.834,3.35,2.813,5.431,2.813c1.331,0,2.666-0.395,3.833-1.219c2.207-1.561,5.309-3.826,8.897-6.439
		c11.521-8.418,42.134-30.766,48.775-31.916c4.142-0.277,19.085,8.943,28.021,14.449c9.403,5.811,18.295,11.311,24.938,13.709
		c3.449,1.252,7.263-0.537,8.512-3.99C197.832,269.487,196.043,265.686,192.594,264.44z"/>
	<path d="M170.161,297.463c-3.736-2.438-7.159-4.891-10.485-7.254c-10.89-7.783-20.308-14.504-30.632-12.703
		c-11.617,2.004-30.128,20.613-33.722,24.324c-2.553,2.635-2.483,6.844,0.151,9.396c1.29,1.242,2.957,1.869,4.62,1.869
		c1.734,0,3.47-0.68,4.768-2.027c8.897-9.184,21.539-19.629,26.446-20.477c4.849-0.836,12.179,4.387,20.651,10.43
		c3.271,2.334,6.976,4.977,10.938,7.563c3.073,2.006,7.193,1.145,9.191-1.93C174.098,303.583,173.229,299.473,170.161,297.463z"/>
	<path d="M230.99,169.426c1.66-2.813,0.959-7.672-2.381-9.082c-2.136-0.902-4.299-1.854-6.428-2.859
		c-0.615,4.476-1.588,8.877-2.867,13.191c0.855,0.387,1.718,0.766,2.594,1.133C225.241,173.225,228.989,172.858,230.99,169.426z"/>
	<path d="M215.725,195.004c-2.122-0.65-4.016-1.4-5.903-2.264l10.314,10.332C220.896,199.918,219.703,196.239,215.725,195.004z"/>
	<path d="M290.687,280.797l-89.797-89.951c-0.139-0.145-0.302-0.232-0.445-0.365c9.746-13.545,15.558-30.096,15.558-48.012
		c0-45.453-36.977-82.424-82.423-82.424c-45.449,0-82.423,36.975-82.423,82.424c0,22.41,9,42.748,23.568,57.621v0.145h0.133
		c14.962,15.201,35.755,24.652,58.721,24.652c16.516,0,31.892-4.928,44.801-13.326c0.272,0.322,0.506,0.676,0.804,0.982
		l89.791,89.955c5.988,5.994,15.707,5.988,21.71,0C296.668,296.506,296.668,286.786,290.687,280.797z M188.5,179.337l-4.287,5.657
		c-3.785,4.492-8.151,8.473-12.99,11.832l-6.094,3.799c-9.385,5.107-38.547,11.016-38.547,11.016l-50.854-33.063
		c-4.647-9.049-8.32-25.26-8.32-36.11c0-11.476,2.946-22.277,8.104-31.696l22.195-23.831c10.35-6.708,22.651-10.65,35.871-10.65
		c13.333,0,25.729,3.999,36.136,10.807l19.222,19.217c6.817,10.405,10.813,22.813,10.813,36.15
		C199.752,156.108,195.599,168.793,188.5,179.337z"/>
	<path d="M164.187,111.397"/>
	<path d="M177.192,98.384"/>
</g>
</svg>
