<?xml version="1.0" encoding="utf-8"?>
<!-- Generator: Adobe Illustrator 16.0.0, SVG Export Plug-In . SVG Version: 6.00 Build 0)  -->
<!DOCTYPE svg PUBLIC "-//W3C//DTD SVG 1.1//EN" "http://www.w3.org/Graphics/SVG/1.1/DTD/svg11.dtd">
<svg version="1.1" id="Capa_1" xmlns="http://www.w3.org/2000/svg" xmlns:xlink="http://www.w3.org/1999/xlink" x="0px" y="0px"
	 width="60.585px" height="60.585px" viewBox="0 0 60.585 60.585" enable-background="new 0 0 60.585 60.585" xml:space="preserve">
<g>
	<g>
		<path d="M35.042,54.263c0-6.957,5.566-12.625,12.477-12.826c-1.885-0.789-3.777-1.545-5.686-2.28
			c-0.342-0.13-0.742-0.384-0.881-0.685c-0.369-0.816-0.632-1.684-0.89-2.541c-0.168-0.547-0.315-1.063-0.921-1.326
			c-0.162-0.067-0.311-0.387-0.307-0.588c0.031-1.99-0.429-4.083,1.041-5.813c0.049-0.054,0.063-0.131,0.096-0.196
			c0.798-1.743,0.939-3.735,2.053-5.356c0.03-0.038,0.039-0.091,0.041-0.14c0.128-1.235,0.262-2.472,0.365-3.709
			c0.014-0.154-0.129-0.426-0.254-0.473c-0.613-0.219-0.579-0.709-0.576-1.203c0.002-2.417,0-4.834-0.003-7.25
			c-0.002-1.403-0.412-2.655-1.478-3.611c-1.213-1.086-2.451-2.137-3.691-3.188c-0.6-0.508-0.649-0.898-0.092-1.456
			c0.244-0.245,0.565-0.423,0.855-0.633c-0.061-0.094-0.128-0.188-0.188-0.283c-0.377,0-0.76-0.049-1.123,0.007
			c-1.367,0.222-2.752,0.416-4.098,0.733c-2.579,0.608-5.083,1.414-7.174,3.138c-1.435,1.179-2.573,2.553-2.717,4.499
			c-0.074,1.016-0.063,2.042-0.072,3.06c-0.011,1.658,0.013,3.321-0.021,4.979c-0.008,0.271-0.163,0.715-0.344,0.775
			c-0.674,0.218-0.69,0.647-0.6,1.208c0.061,0.383,0.01,0.785,0.098,1.161c0.234,1.039,0.478,2.073,0.776,3.098
			c0.226,0.763,0.657,1.48,0.774,2.253c0.244,1.547,0.813,2.892,1.854,4.057c0.173,0.191,0.304,0.517,0.285,0.771
			c-0.08,1.192-0.203,2.382-0.362,3.561c-0.031,0.23-0.275,0.575-0.474,0.613c-0.79,0.165-0.914,0.775-1.103,1.395
			c-0.248,0.813-0.518,1.619-0.83,2.412c-0.098,0.243-0.34,0.498-0.584,0.605c-1.408,0.613-2.834,1.175-4.25,1.771
			c-1.51,0.631-3.03,1.235-4.504,1.939c-1.517,0.725-2.986,1.537-4.469,2.336c-0.874,0.466-1.689,0.984-2.38,1.629v9.25
			c9.827,0,19.649,0,29.473,0C35.094,55.402,35.042,54.841,35.042,54.263z"/>
		<polygon points="54.896,53.097 49.057,53.097 49.057,47.256 46.721,47.256 46.721,53.097 40.881,53.097 40.881,55.431 
			46.721,55.431 46.721,61.271 49.057,61.271 49.057,55.431 54.896,55.431 		"/>
	</g>
</g>
</svg>
